<svg width="512" height="512" viewBox="0 0 200 200" fill="none" xmlns="http://www.w3.org/2000/svg">
<defs>
    <linearGradient id="synthwave_sunset" x1="0%" y1="0%" x2="0%" y2="100%">
        <stop offset="0%" style="stop-color:#5722FF;stop-opacity:1" />
        <stop offset="50%" style="stop-color:#FF00D4;stop-opacity:1" />
        <stop offset="100%" style="stop-color:#FF9100;stop-opacity:1" />
    </linearGradient>
</defs>

<path fill="url(#synthwave_sunset)" fill-rule="evenodd" clip-rule="evenodd" d="M100,0 C44.77,0 0,44.77 0,100 C0,155.23 44.77,200 100,200 C155.23,200 200,155.23 200,100 C200,44.77 155.23,0 100,0 Z M100,175 C58.58,175 25,141.42 25,100 C25,58.58 58.58,25 100,25 C141.42,25 175,58.58 175,100 C175,141.42 141.42,175 100,175 Z"/>

<path fill="url(#synthwave_sunset)" d="M 56,42 L 42,56 L 86,100 L 42,144 L 56,158 L 100,114 L 144,158 L 158,144 L 114,100 L 158,56 L 144,42 L 100,86 Z"/>
</svg>